# xmcd CD database file
#
# Track frame offsets:
#	150
#	16419
#	28982
#	42528
#	59767
#	76725
#	94831
#	106399
#	116719
#	131880
#	142170
#	159445
#	171899
#	186201
#	201766
#	212789
#	226004
#	242570
#	252921
#	267949
#	280554
#	299649
#	311689
#	325607
#	339445
#
# Disc length: 4609 seconds
#
# Revision: 0
# Processed by: cddbd v1.5.1PL0 Copyright (c) Steve Scherf et al.
# Submitted via: CDex 1.51
#
DISCID=7811ff19
DTITLE=Claude Hopkins - The Transcription Performances 1935 [HEP #1049, 1999]
DYEAR=1935
DGENRE=Jazz
TTITLE0=Nagasaki
TTITLE1=Canadian Capers
TTITLE2=Yankee Doodle Never Went to Town
TTITLE3=Somebody Else Not Me
TTITLE4=Put on Your Old Grey Bonnet
TTITLE5=You Stayed Away Too Long
TTITLE6=What'll I Do
TTITLE7=Traffic Was Terrific
TTITLE8=Hodge Podge
TTITLE9=Swingin' and Jivin'
TTITLE10=Farewell Blues
TTITLE11=Minor Mania
TTITLE12=Washington Squabble
TTITLE13=Singin' in the Rain
TTITLE14=Nola
TTITLE15=Back Beats
TTITLE16=Chasing the Blues Away
TTITLE17=Aw Shucks
TTITLE18=Just As Long As the World Goes 'Round an Around
TTITLE19=Truckin'
TTITLE20=The Preacher and the Bear
TTITLE21=In the Shade of the Old Apple Tree
TTITLE22=That's a Plenty
TTITLE23=Everybody Shuffle
TTITLE24=I would Do Anything for You
EXTD=YEAR: 1935
EXTT0=
EXTT1=
EXTT2=
EXTT3=
EXTT4=
EXTT5=
EXTT6=
EXTT7=
EXTT8=
EXTT9=
EXTT10=
EXTT11=
EXTT12=
EXTT13=
EXTT14=
EXTT15=
EXTT16=
EXTT17=
EXTT18=
EXTT19=
EXTT20=
EXTT21=
EXTT22=
EXTT23=
EXTT24=
PLAYORDER=
